<?xml version="1.0" encoding="utf-8"?>
<svg viewBox="250.362 244.742 54.25 62" xmlns="http://www.w3.org/2000/svg">
  <path d="M15.5 0C13.3687 0 11.625 1.74375 11.625 3.875V58.125C11.625 60.2562 13.3687 62 15.5 62H54.25C56.3812 62 58.125 60.2562 58.125 58.125V15.5L42.625 0H15.5Z" fill="#E2E5E7" transform="matrix(1, 0, 0, 1, 246.486908, 244.741699)"/>
  <path d="M46.5 15.5H58.125L42.625 0V11.625C42.625 13.7563 44.3687 15.5 46.5 15.5Z" fill="#B0B7BD" transform="matrix(1, 0, 0, 1, 246.486908, 244.741699)"/>
  <path d="M58.125 27.125L46.5 15.5H58.125V27.125Z" fill="#CAD1D8" transform="matrix(1, 0, 0, 1, 246.486908, 244.741699)"/>
  <path d="M50.375 50.375C50.375 51.4406 49.5031 52.3125 48.4375 52.3125H5.8125C4.74687 52.3125 3.875 51.4406 3.875 50.375V31C3.875 29.9344 4.74687 29.0625 5.8125 29.0625H48.4375C49.5031 29.0625 50.375 29.9344 50.375 31V50.375Z" style="fill: rgb(29, 111, 66);" transform="matrix(1, 0, 0, 1, 246.486908, 244.741699)"/>
  <path d="M48.4375 52.3125H11.625V54.25H48.4375C49.5031 54.25 50.375 53.3781 50.375 52.3125V50.375C50.375 51.4406 49.5031 52.3125 48.4375 52.3125Z" fill="#CAD1D8" transform="matrix(1, 0, 0, 1, 246.486908, 244.741699)"/>
  <path d="M 257.733 283.801 L 260.43 280.424 C 261.234 279.372 262.8 280.718 261.918 281.726 C 260.99 282.826 260.014 284.02 259.082 285.24 L 262.244 289.175 C 263.094 290.338 261.391 291.454 260.554 290.307 L 257.704 286.651 L 254.901 290.384 C 254.11 291.514 252.359 290.245 253.244 289.191 L 256.358 285.24 C 255.381 284.018 254.436 282.826 253.492 281.726 C 252.516 280.563 254.329 279.372 255.04 280.457 L 257.733 283.801 Z" fill="white"/>
  <path d="M 265 280.946 C 265 280.434 265.434 280 265.977 280 C 266.473 280 266.891 280.436 266.891 280.946 L 266.891 288.707 L 271.105 288.707 C 272.622 288.707 272.655 290.736 271.105 290.736 L 265.979 290.736 C 265.436 290.736 265.002 290.35 265.002 289.79 L 265.002 280.946 L 265 280.946 Z" fill="white"/>
  <path d="M 274.68 282.818 C 275.037 279.811 279.575 279.27 281.712 280.913 C 282.766 281.764 281.652 283.112 280.72 282.43 C 279.575 281.704 276.971 281.363 276.645 282.971 C 276.227 285.513 282.967 284.058 282.857 288.179 C 282.748 292.114 277.048 292.205 274.909 290.44 C 274.398 290.021 274.413 289.341 274.694 288.921 C 275.095 288.52 275.545 288.38 276.072 288.814 C 277.343 289.68 280.611 290.331 280.844 288.13 C 280.644 285.84 274.2 287.218 274.68 282.818 Z" fill="white"/>
  <path d="M 289.733 283.771 L 292.43 280.394 C 293.234 279.342 294.8 280.688 293.918 281.696 C 292.99 282.796 292.014 283.99 291.082 285.21 L 294.244 289.145 C 295.094 290.308 293.391 291.424 292.554 290.277 L 289.704 286.621 L 286.901 290.354 C 286.11 291.484 284.359 290.215 285.244 289.161 L 288.358 285.21 C 287.381 283.988 286.436 282.796 285.492 281.696 C 284.516 280.533 286.329 279.342 287.04 280.427 L 289.733 283.771 Z" fill="white"/>
</svg>