<svg xmlns="http://www.w3.org/2000/svg" xmlns:xlink="http://www.w3.org/1999/xlink" width="160.073" height="39.977" viewBox="0 0 160.073 39.977">
  <defs>
    <clipPath id="clip-path">
      <rect id="Rectangle_194" data-name="Rectangle 194" width="160.073" height="39.977" fill="none"/>
    </clipPath>
  </defs>
  <g id="Group_525" data-name="Group 525" transform="translate(0 0)">
    <rect id="Rectangle_193" data-name="Rectangle 193" width="160.073" height="39.977" transform="translate(0 0)" fill="#0071bb"/>
    <path id="Path_324" data-name="Path 324" d="M71.474,34.256,66.579,25.7l2.156-3.876H63.375l-4.815,8.66h5.356l4.893,8.56Z" transform="translate(-31.777 -11.843)" fill="#f26f21"/>
    <path id="Path_325" data-name="Path 325" d="M43.9,21.832l-5.051,8.653-4.483.016,2.679,4.641,9.977-.013-2.709-4.7,5.018-8.606Z" transform="translate(-18.649 -11.843)" fill="#f26f21"/>
    <path id="Path_326" data-name="Path 326" d="M44.312,52.218l9.855.011,2.276,3.8,2.678-4.641-5.092-8.5-2.677,4.638-9.844,0Z" transform="translate(-22.524 -23.272)" fill="#f26f21"/>
    <g id="Group_524" data-name="Group 524" transform="translate(0 0)">
      <g id="Group_523" data-name="Group 523" clip-path="url(#clip-path)">
        <path id="Path_327" data-name="Path 327" d="M98.156,34.465l2.153-8.2h3.576a4.528,4.528,0,0,1,1.688.248,1.509,1.509,0,0,1,.834.764,1.566,1.566,0,0,1,.091,1.081,2.257,2.257,0,0,1-.59.991,3.337,3.337,0,0,1-1.2.746,1.8,1.8,0,0,1,1.133.745,1.526,1.526,0,0,1,.138,1.243,2.792,2.792,0,0,1-.566,1.077,3.225,3.225,0,0,1-.9.761,4.226,4.226,0,0,1-1.148.408,7.839,7.839,0,0,1-1.574.136Zm2.515-4.756h2.059a5.7,5.7,0,0,0,1.229-.094,1.944,1.944,0,0,0,.832-.407,1.458,1.458,0,0,0,.434-.72,1.046,1.046,0,0,0-.04-.718.808.808,0,0,0-.54-.427,5.876,5.876,0,0,0-1.42-.116h-1.9Zm-1,3.792h2.372a7.2,7.2,0,0,0,.869-.039,2.824,2.824,0,0,0,.788-.227,1.82,1.82,0,0,0,.6-.455,1.67,1.67,0,0,0,.37-.691,1.073,1.073,0,0,0-.063-.8,1.007,1.007,0,0,0-.631-.477,4.985,4.985,0,0,0-1.359-.137h-2.206Z" transform="translate(-53.264 -14.253)" fill="#fff"/>
        <path id="Path_328" data-name="Path 328" d="M115.425,34.465l5.805-8.2h1.378l1.748,8.2h-1.438l-.451-2.482h-4.018l-1.683,2.482Zm3.63-3.364H122.3l-.4-2.272c-.12-.692-.2-1.265-.237-1.716a13.547,13.547,0,0,1-.936,1.582Z" transform="translate(-62.635 -14.253)" fill="#fff"/>
        <path id="Path_329" data-name="Path 329" d="M137.129,34.465l2.15-8.2h1.295l3.32,6.436,1.688-6.436h1.21l-2.15,8.2h-1.3l-3.317-6.439-1.691,6.439Z" transform="translate(-74.413 -14.253)" fill="#fff"/>
        <path id="Path_330" data-name="Path 330" d="M158.082,34.465l2.155-8.2H161.5l-1.065,4.056,5.8-4.056h1.708l-4.872,3.327,2.9,4.872H164.3l-2.3-4.14-1.9,1.3-.745,2.839Z" transform="translate(-85.783 -14.253)" fill="#fff"/>
        <path id="Path_331" data-name="Path 331" d="M177.612,34.465l2.155-8.2h4.915a7.534,7.534,0,0,1,2.041.2,1.57,1.57,0,0,1,.969.744,1.756,1.756,0,0,1,.092,1.327,2.637,2.637,0,0,1-.645,1.177,3.655,3.655,0,0,1-1.142.8,4.888,4.888,0,0,1-1.122.327,2.364,2.364,0,0,1,.685.3,1.849,1.849,0,0,1,.359.429,2.319,2.319,0,0,1,.281.514l.807,2.373h-3.332l-.921-2.5a1.3,1.3,0,0,0-.367-.631,1.113,1.113,0,0,0-.672-.2h-.259l-.875,3.33Zm4.251-4.882H183.1a6.24,6.24,0,0,0,.807-.111,1.109,1.109,0,0,0,.545-.26.91.91,0,0,0,.309-.472.565.565,0,0,0-.134-.6,1.69,1.69,0,0,0-1.042-.214H182.3Z" transform="translate(-96.381 -14.253)" fill="#fff"/>
        <path id="Path_332" data-name="Path 332" d="M205.264,33.118h-3.35l-.82,1.347h-3.011l5.734-8.2h3.231l1.419,8.2h-3.083Zm-.145-1.777-.275-2.947-1.821,2.947Z" transform="translate(-107.489 -14.253)" fill="#fff"/>
        <path id="Path_333" data-name="Path 333" d="M225.047,26.266H228l-.815,3.1,3.906-3.1h3.916l-4.28,3.09,2.28,5.109h-3.634l-1.12-3.364-1.879,1.362-.528,2H222.9Z" transform="translate(-120.954 -14.253)" fill="#fff"/>
        <path id="Path_334" data-name="Path 334" d="M249.734,26.266h3.274l1.207,2.754,2.644-2.754h3.249l-4.953,4.764-.9,3.435H251.3l.9-3.435Z" transform="translate(-135.517 -14.253)" fill="#fff"/>
        <path id="Path_335" data-name="Path 335" d="M272.137,33.118h-3.347l-.821,1.347h-3.01l5.731-8.2h3.235l1.417,8.2h-3.082ZM272,31.34l-.28-2.947L269.9,31.34Z" transform="translate(-143.779 -14.253)" fill="#fff"/>
        <path id="Path_336" data-name="Path 336" d="M290.323,26.266h8.971l-.529,2.016h-3.009l-1.622,6.183h-2.956l1.625-6.183h-3.009Z" transform="translate(-157.256 -14.253)" fill="#fff"/>
        <path id="Path_337" data-name="Path 337" d="M277.175,51.783l-.7-.7.7-.7.7.7Z" transform="translate(-150.027 -27.342)" fill="#fff" fill-rule="evenodd"/>
        <path id="Path_338" data-name="Path 338" d="M200.92,57.621l.7.7.7-.7-.7-.7Zm33.31-5.517-.7-.7-.7.7.7.7ZM211.195,55.46h-2.386c-.472-1.083.806-1.242.806-1.242a1.43,1.43,0,0,0,1.1-.623,2.09,2.09,0,0,1-.59-1.615c-.205,1.169-1.641,1.362-1.641,1.362-1.781.177-1.07,2.132-1.07,2.132h-2V53.29a2.8,2.8,0,0,1-1.438,1.334l.286.342v.493h-4.141V52.941l0-.365a2.4,2.4,0,0,1-1.353.9l.214.343V54c-2.415-.67-2.512,1.475-2.512,1.475h-1.01c.027.411-1.468,1.007-1.468,1.007h18.985a3.248,3.248,0,0,1-1.776-1.023m-13.026.057s-.834-.488.18-.9a.67.67,0,0,1,.845.452s-.143.684-1.025.45m-2.923-2.474-.7-.7-.7.7.7.7Zm1.781,0-.7-.7-.7.7.7.7Zm34.719-.939-.7-.7-.7.7.7.7Zm-18.152,1.621s-.8.639-.714,1.354c0,0,1.265-.021,1.358,1.1,0,0,.068,1.448-2.047,1.631l.024.046s3.2.326,3.264-2.068c0,0-.068-2.318-1.885-2.066m24.725,3.9.7.7.7-.7-.7-.7Zm1.9-2.99.286.344,0,.5-2.783-.007V53.275a2.768,2.768,0,0,1-1.436,1.333l.288.343v.5l-3.055,0v-.631s.6-.531,1.009-.464l.026-.224a2.721,2.721,0,0,0-1.081-.277,1.142,1.142,0,0,0-2.117,0,2.708,2.708,0,0,0-1.078.277l.021.224c.414-.066,1.012.464,1.012.464v.644h-3.219s.275-2.025-2.251-2.025h-4.506a.687.687,0,0,1,.668-.456s2.183-.462,1.469-2.048c0,0-.781-1.609-3.356-.851,0,0,.782.851.782,1.034,0,0,1.218-.206,1.356.277,0,0,.253.55-1.1.849,0,0-2.136.552-1.565,2.231h6.1s.9,0,.9.461c0,0,.018.528-.946.528h-8.066v1.006h24.084V53.3a2.793,2.793,0,0,1-1.433,1.334m-7.76.418a.515.515,0,1,1,.514-.516.516.516,0,0,1-.514.516M202.7,57.621l.7.7.7-.7-.7-.7Zm32.417,0,.7.7.7-.7-.7-.7Zm-1.78,0,.7.7.7-.7-.7-.7Z" transform="translate(-105.19 -27.073)" fill="#fff" fill-rule="evenodd"/>
      </g>
    </g>
  </g>
</svg>
