<svg id="Group_632" data-name="Group 632" xmlns="http://www.w3.org/2000/svg" xmlns:xlink="http://www.w3.org/1999/xlink" width="763.005" height="337.309" viewBox="0 0 763.005 337.309">
  <defs>
    <clipPath id="clip-path">
      <rect id="Rectangle_490" data-name="Rectangle 490" width="763.005" height="337.309" fill="none"/>
    </clipPath>
    <clipPath id="clip-path-2">
      <path id="Rectangle_480" data-name="Rectangle 480" d="M25.439,0h224.2a25.438,25.438,0,0,1,25.438,25.438v224.2a25.439,25.439,0,0,1-25.439,25.439H25.439A25.439,25.439,0,0,1,0,249.637V25.439A25.439,25.439,0,0,1,25.439,0Z" transform="translate(59.413 14.541)" fill="none"/>
    </clipPath>
    <linearGradient id="linear-gradient" x1="-0.011" y1="0.981" x2="-0.009" y2="0.981" gradientUnits="objectBoundingBox">
      <stop offset="0" stop-color="#009ed8"/>
      <stop offset="0.15" stop-color="#0093cb"/>
      <stop offset="0.422" stop-color="#0076ab"/>
      <stop offset="0.782" stop-color="#004778"/>
      <stop offset="1" stop-color="#002956"/>
    </linearGradient>
    <clipPath id="clip-path-4">
      <rect id="Rectangle_482" data-name="Rectangle 482" width="17.334" height="33.557" transform="translate(484.565 97.759)" fill="none"/>
    </clipPath>
    <clipPath id="clip-path-5">
      <rect id="Rectangle_483" data-name="Rectangle 483" width="17.334" height="33.557" transform="translate(461.55 97.759)" fill="none"/>
    </clipPath>
    <clipPath id="clip-path-7">
      <rect id="Rectangle_485" data-name="Rectangle 485" width="207.369" height="337.309" fill="none"/>
    </clipPath>
    <clipPath id="clip-path-9">
      <rect id="Rectangle_487" data-name="Rectangle 487" width="43.867" height="84.923" transform="translate(200.591 81.6)" fill="none"/>
    </clipPath>
    <clipPath id="clip-path-10">
      <rect id="Rectangle_488" data-name="Rectangle 488" width="43.867" height="84.923" transform="translate(142.345 81.6)" fill="none"/>
    </clipPath>
  </defs>
  <g id="Group_631" data-name="Group 631" clip-path="url(#clip-path)">
    <g id="Group_609" data-name="Group 609">
      <g id="Group_608" data-name="Group 608" clip-path="url(#clip-path-2)">
        <rect id="Rectangle_479" data-name="Rectangle 479" width="385.107" height="385.107" transform="matrix(0.8, -0.6, 0.6, 0.8, -72.623, 113.568)" fill="url(#linear-gradient)"/>
      </g>
    </g>
    <g id="Group_617" data-name="Group 617">
      <g id="Group_616" data-name="Group 616" clip-path="url(#clip-path)">
        <path id="Path_845" data-name="Path 845" d="M430.238,202.2v16.564a23.943,23.943,0,0,1-2.961.518,31.459,31.459,0,0,1-3.991.258,17.887,17.887,0,0,1-3.477-.3,5.808,5.808,0,0,1-2.489-1.079,4.808,4.808,0,0,1-1.5-2.157,10.574,10.574,0,0,1-.515-3.624V171.748a3.8,3.8,0,0,1,.988-2.8,7.045,7.045,0,0,1,2.7-1.6,32.1,32.1,0,0,1,6.781-1.51,67.925,67.925,0,0,1,8.239-.474q11.846,0,17.854,5t6.007,13.545a15.176,15.176,0,0,1-2.747,9.144,19.749,19.749,0,0,1-6.522,5.866q3.09,4.229,6.094,7.937a51.307,51.307,0,0,1,4.72,6.729,8.133,8.133,0,0,1-3.132,4.616,8.692,8.692,0,0,1-5.108,1.6,10.948,10.948,0,0,1-3.261-.431,7.894,7.894,0,0,1-2.4-1.208,9.847,9.847,0,0,1-1.889-1.9,25.074,25.074,0,0,1-1.63-2.416l-7.21-11.646Zm5.407-11.474a7.467,7.467,0,0,0,5.15-1.683,6.3,6.3,0,0,0,1.888-4.961,5.977,5.977,0,0,0-2.1-4.96q-2.106-1.683-6.653-1.682a19.559,19.559,0,0,0-2.059.086q-.772.087-1.717.259v12.941Z" fill="#ef5713"/>
        <path id="Path_846" data-name="Path 846" d="M489.546,168.383a18.178,18.178,0,0,1,4.42-1.639,23.414,23.414,0,0,1,5.966-.776,21.394,21.394,0,0,1,7.6,1.251,6.634,6.634,0,0,1,4.249,3.925q1.544,4.486,3.346,10.438t3.606,12.294q1.8,6.342,3.518,12.51t3.005,10.913a7.08,7.08,0,0,1-3.09,1.942,14.669,14.669,0,0,1-4.892.732,14.942,14.942,0,0,1-3.477-.345,6.152,6.152,0,0,1-2.317-1.035,5.075,5.075,0,0,1-1.459-1.811,15.659,15.659,0,0,1-.987-2.588l-1.545-5.953H491.95q-.689,2.588-1.374,5.348t-1.374,5.349a22,22,0,0,1-2.531.733,14.8,14.8,0,0,1-3.219.3q-4.377,0-6.48-1.51a4.859,4.859,0,0,1-2.1-4.183,8.8,8.8,0,0,1,.344-2.416q.344-1.207.773-2.847.6-2.329,1.674-5.78t2.36-7.462q1.287-4.012,2.746-8.24t2.747-7.98q1.287-3.753,2.36-6.686t1.674-4.486m10.3,11.129q-1.2,3.624-2.7,8.066t-2.7,9.016h10.642q-1.2-4.657-2.446-9.1t-2.274-7.98Z" fill="#ef5713"/>
        <path id="Path_847" data-name="Path 847" d="M557.611,199.7v19.066a23.986,23.986,0,0,1-3,.518,32.474,32.474,0,0,1-4.034.259,17.888,17.888,0,0,1-3.477-.3,6.162,6.162,0,0,1-2.532-1.079,4.669,4.669,0,0,1-1.545-2.156,10.577,10.577,0,0,1-.514-3.624V166.83q.942-.173,3-.475a27.445,27.445,0,0,1,3.949-.3,17.9,17.9,0,0,1,3.476.3,6.174,6.174,0,0,1,2.532,1.079,4.654,4.654,0,0,1,1.545,2.157,10.574,10.574,0,0,1,.515,3.623v13.717l17.853-20.619q5.835,0,8.369,2.2a6.714,6.714,0,0,1,2.531,5.219,8.5,8.5,0,0,1-1.115,4.228,22.047,22.047,0,0,1-3.606,4.486l-10.728,10.783q2.144,2.418,4.506,5t4.634,5.047q2.274,2.46,4.378,4.7t3.648,3.882a7.858,7.858,0,0,1-.687,3.365,7.686,7.686,0,0,1-1.845,2.5,7.847,7.847,0,0,1-2.618,1.553,9.18,9.18,0,0,1-3.089.518,8.98,8.98,0,0,1-5.751-1.769,30.738,30.738,0,0,1-4.292-4.185Z" fill="#ef5713"/>
        <path id="Path_848" data-name="Path 848" d="M632.369,218.766a23.963,23.963,0,0,1-2.918.518,29.985,29.985,0,0,1-3.862.258,10.618,10.618,0,0,1-5.923-1.338q-1.976-1.335-1.974-5.65V200.908q-2.145-3.19-4.635-7.075t-4.892-7.937q-2.4-4.053-4.463-7.98a73.4,73.4,0,0,1-3.348-7.2,11.708,11.708,0,0,1,3.047-2.847,8.363,8.363,0,0,1,4.764-1.294,9.777,9.777,0,0,1,5.45,1.38,12.96,12.96,0,0,1,3.991,5.176l7.124,14.408h.515q1.2-2.674,2.1-4.874t1.759-4.4q.858-2.2,1.8-4.572t2.146-5.478A15.11,15.11,0,0,1,636.489,167a16.218,16.218,0,0,1,3.606-.431,8.206,8.206,0,0,1,5.106,1.6,5.636,5.636,0,0,1,2.1,4.788,9.194,9.194,0,0,1-.429,2.5A28.076,28.076,0,0,1,644.9,179.9q-1.544,2.976-4.506,8.066t-8.025,13.285Z" fill="#ef5713"/>
        <path id="Path_849" data-name="Path 849" d="M672.624,168.383a18.176,18.176,0,0,1,4.42-1.639,23.414,23.414,0,0,1,5.966-.776,21.394,21.394,0,0,1,7.6,1.251,6.634,6.634,0,0,1,4.249,3.925q1.543,4.486,3.346,10.438t3.606,12.294q1.8,6.342,3.518,12.51T708.33,217.3a7.08,7.08,0,0,1-3.09,1.942,14.665,14.665,0,0,1-4.892.732,14.943,14.943,0,0,1-3.477-.345,6.152,6.152,0,0,1-2.317-1.035,5.075,5.075,0,0,1-1.459-1.811,15.659,15.659,0,0,1-.987-2.588l-1.545-5.953H675.028q-.689,2.588-1.374,5.348t-1.374,5.349a22,22,0,0,1-2.531.733,14.8,14.8,0,0,1-3.219.3q-4.377,0-6.48-1.51a4.859,4.859,0,0,1-2.1-4.183,8.8,8.8,0,0,1,.344-2.416q.344-1.207.773-2.847.6-2.329,1.674-5.78t2.36-7.462q1.287-4.012,2.746-8.24t2.747-7.98q1.287-3.753,2.36-6.686t1.674-4.486m10.3,11.129q-1.2,3.624-2.7,8.066t-2.7,9.016h10.642q-1.2-4.657-2.446-9.1t-2.274-7.98Z" fill="#ef5713"/>
        <path id="Path_850" data-name="Path 850" d="M720.175,178.908a11.2,11.2,0,0,1-1.116-2.589,11.45,11.45,0,0,1-.515-3.45q0-3.364,1.5-4.832a5.355,5.355,0,0,1,3.9-1.466h37.423a11.191,11.191,0,0,1,1.115,2.588,11.426,11.426,0,0,1,.516,3.451q0,3.363-1.5,4.831a5.352,5.352,0,0,1-3.9,1.467h-9.527v39.857a24.036,24.036,0,0,1-2.962.518,31.442,31.442,0,0,1-3.992.259,17.867,17.867,0,0,1-3.475-.3,6.143,6.143,0,0,1-2.532-1.079,4.655,4.655,0,0,1-1.545-2.156,10.549,10.549,0,0,1-.515-3.624V178.908Z" fill="#ef5713"/>
        <path id="Path_851" data-name="Path 851" d="M422.739,105.758a4.238,4.238,0,1,1-4.234-4.363,4.173,4.173,0,0,1,4.234,4.363m-.632,43.255H414.9V115.371h7.208Z" fill="#0060af"/>
        <rect id="Rectangle_481" data-name="Rectangle 481" width="15.557" height="4.999" transform="translate(431.336 127.258)" fill="#0060af"/>
        <path id="Path_852" data-name="Path 852" d="M551.666,134.975H526.244a10.242,10.242,0,0,0,10.436,8.411,13.082,13.082,0,0,0,9.484-3.922l3.857,4.112c-3.289,3.6-8.094,5.689-13.912,5.689-10.371,0-17.2-6.892-17.2-17.008,0-10.184,7.02-17.076,17.011-17.14,11.826,0,16.634,7.717,15.747,19.858m-6.324-5.311c-.252-5.44-3.857-8.73-9.359-8.73-5.311,0-9.107,3.354-9.864,8.73Z" fill="#0060af"/>
        <path id="Path_853" data-name="Path 853" d="M578.154,115.116v6.956c-6.766-.377-11.068,3.605-11.635,9.362v17.578h-7.272V115.371h7.272v6.7c2.276-4.55,6.325-6.956,11.635-6.956" fill="#0060af"/>
        <path id="Path_854" data-name="Path 854" d="M598.261,121.5c-5.818,0-9.994,4.363-9.994,10.752s4.176,10.748,9.994,10.748c4.237,0,7.649-1.39,9.927-4.047l4.046,4.047c-3.033,3.983-7.9,6.26-14.289,6.26-9.994,0-16.95-6.892-16.95-17.008,0-10.184,6.956-17.14,16.95-17.14,6.069,0,10.813,1.96,13.912,5.5l-3.986,4.679a12.7,12.7,0,0,0-9.61-3.792" fill="#0060af"/>
        <path id="Path_855" data-name="Path 855" d="M652.388,128.08v20.933h-7.272V130.1c0-5.06-3.038-8.159-8.1-8.159-6.008.065-9.613,4.554-9.613,10.5v16.57h-7.273V102.091h7.273v19.855c2.4-4.743,6.7-6.83,12.458-6.83,7.842,0,12.522,4.934,12.522,12.964" fill="#0060af"/>
        <path id="Path_856" data-name="Path 856" d="M682.288,149.013V144.9c-2.4,2.973-6.259,4.428-11.129,4.428-7.272,0-11.825-4.489-11.825-10.436,0-6.134,4.614-10.052,12.709-10.116h10.184v-1.013c0-4.237-2.722-6.766-8.033-6.766a17.728,17.728,0,0,0-9.926,3.415l-2.974-5.059c4.68-2.784,8.095-4.238,14.48-4.238,8.665,0,13.535,4.428,13.6,11.826l.065,22.071Zm-.061-11.826v-3.1H673.12c-4.744,0-6.956,1.264-6.956,4.489,0,3.038,2.467,5,6.514,5,5.186,0,9.168-2.721,9.549-6.388" fill="#0060af"/>
        <path id="Path_857" data-name="Path 857" d="M731.358,128.08v20.933h-7.272V130.1c0-5.06-3.035-8.159-8.094-8.159-5.567.065-9.043,3.922-9.549,9.172v17.9h-7.272V115.371h7.272v6.45c2.4-4.68,6.7-6.705,12.393-6.705,7.843,0,12.522,4.934,12.522,12.964" fill="#0060af"/>
        <path id="Path_858" data-name="Path 858" d="M760.12,146.862a16.127,16.127,0,0,1-8.285,2.467c-5.056,0-9.419-2.909-9.419-9.8V122.073h-4.744v-5.438h4.744V107.4h7.207v9.232h9.929v5.438h-9.929V138.2c0,3.476,1.329,4.554,3.605,4.554a11.758,11.758,0,0,0,5.06-1.455Z" fill="#0060af"/>
        <path id="Path_859" data-name="Path 859" d="M479.639,144.409h0a8,8,0,0,1-4.76-10.268l11.506-31.392a8,8,0,0,1,15.028,5.509l-11.506,31.391a8,8,0,0,1-10.268,4.76" fill="#0060af"/>
        <g id="Group_612" data-name="Group 612" opacity="0.3">
          <g id="Group_611" data-name="Group 611">
            <g id="Group_610" data-name="Group 610" clip-path="url(#clip-path-4)">
              <path id="Path_860" data-name="Path 860" d="M490.7,98.174a7.972,7.972,0,0,0-4.317,4.575l-1.82,4.964a8.9,8.9,0,0,0,.471,1.979l7.925,21.623,8.452-23.058a7.951,7.951,0,0,0,.13-5.093,8.869,8.869,0,0,0-10.841-4.99" fill="#0b2148"/>
            </g>
          </g>
        </g>
        <path id="Path_861" data-name="Path 861" d="M513.657,159.4h0a8,8,0,0,0,4.76-10.268l-17-46.384a8,8,0,1,0-15.028,5.508l17,46.384a8,8,0,0,0,10.268,4.76" fill="#ef5713"/>
        <path id="Path_862" data-name="Path 862" d="M456.623,144.409h0a8,8,0,0,1-4.76-10.268l11.506-31.392a8,8,0,0,1,15.028,5.509l-11.506,31.391a8,8,0,0,1-10.268,4.76" fill="#0060af"/>
        <g id="Group_615" data-name="Group 615" opacity="0.3">
          <g id="Group_614" data-name="Group 614">
            <g id="Group_613" data-name="Group 613" clip-path="url(#clip-path-5)">
              <path id="Path_863" data-name="Path 863" d="M467.686,98.174a7.967,7.967,0,0,0-4.316,4.575l-1.821,4.964a8.9,8.9,0,0,0,.472,1.979l7.924,21.623,8.452-23.058a7.951,7.951,0,0,0,.13-5.093,8.869,8.869,0,0,0-10.841-4.99" fill="#0b2148"/>
            </g>
          </g>
        </g>
        <path id="Path_864" data-name="Path 864" d="M490.641,159.4h0a8,8,0,0,0,4.76-10.268l-17-46.384a8,8,0,1,0-15.028,5.508l17,46.384a8,8,0,0,0,10.268,4.76" fill="#ef5713"/>
      </g>
    </g>
    <g id="Group_622" data-name="Group 622">
      <g id="Group_621" data-name="Group 621" clip-path="url(#clip-path-2)">
        <g id="Group_620" data-name="Group 620" opacity="0.7">
          <g id="Group_619" data-name="Group 619">
            <g id="Group_618" data-name="Group 618" clip-path="url(#clip-path-7)">
              <path id="Path_865" data-name="Path 865" d="M97.655,55.795l-11.547-20L106.773,0H86.037L64.143,37.921l-19.306.008L55.152,55.795Z" fill="#000b2a"/>
              <path id="Path_866" data-name="Path 866" d="M97.655,55.795l-11.547-20L106.773,0H86.037L64.143,37.921l-19.306.008L55.152,55.795Z" fill="#000b2a"/>
              <path id="Path_867" data-name="Path 867" d="M110.869,40.71l-11.547,20H57.99L68.359,78.669h43.787L121.8,95.385,132.12,77.518Z" fill="#000b2a"/>
              <path id="Path_868" data-name="Path 868" d="M91.3,36.809h23.1L135.065,72.6l10.369-17.958L123.54,16.724,133.186,0h-20.63Z" fill="#000b2a"/>
              <path id="Path_869" data-name="Path 869" d="M159.591,116.767l-11.547-20,20.665-35.794H147.973L126.079,98.893l-19.306.008,10.315,17.866Z" fill="#000b2a"/>
              <path id="Path_870" data-name="Path 870" d="M159.591,116.767l-11.547-20,20.665-35.794H147.973L126.079,98.893l-19.306.008,10.315,17.866Z" fill="#000b2a"/>
              <path id="Path_871" data-name="Path 871" d="M172.8,101.682l-11.547,20H119.926l10.369,17.959h43.787l9.659,16.716,10.315-17.867Z" fill="#000b2a"/>
              <path id="Path_872" data-name="Path 872" d="M153.241,97.781h23.1L197,133.575l10.369-17.958L185.476,77.7l9.646-16.723h-20.63Z" fill="#000b2a"/>
              <path id="Path_873" data-name="Path 873" d="M140.261,208.98l-11.547-20,20.665-35.794H128.643l-21.894,37.921-19.306.008L97.758,208.98Z" fill="#000b2a"/>
              <path id="Path_874" data-name="Path 874" d="M140.261,208.98l-11.547-20,20.665-35.794H128.643l-21.894,37.921-19.306.008L97.758,208.98Z" fill="#000b2a"/>
              <path id="Path_875" data-name="Path 875" d="M153.475,193.9l-11.547,20H100.6l10.369,17.959h43.787l9.659,16.716L174.726,230.7Z" fill="#000b2a"/>
              <path id="Path_876" data-name="Path 876" d="M133.911,189.994h23.1l20.665,35.794L188.04,207.83l-21.894-37.921,9.646-16.723h-20.63Z" fill="#000b2a"/>
              <path id="Path_877" data-name="Path 877" d="M76.66,144.972l-11.547-20L85.778,89.178H65.042L43.148,127.1l-19.306.008,10.315,17.866Z" fill="#000b2a"/>
              <path id="Path_878" data-name="Path 878" d="M76.66,144.972l-11.547-20L85.778,89.178H65.042L43.148,127.1l-19.306.008,10.315,17.866Z" fill="#000b2a"/>
              <path id="Path_879" data-name="Path 879" d="M89.874,129.887l-11.547,20H36.995l10.369,17.959H91.151l9.659,16.716,10.315-17.867Z" fill="#000b2a"/>
              <path id="Path_880" data-name="Path 880" d="M70.31,125.985H93.4l20.665,35.794,10.369-17.958L102.545,105.9l9.646-16.723H91.561Z" fill="#000b2a"/>
              <path id="Path_881" data-name="Path 881" d="M52.818,229.335l-11.547-20,20.665-35.794H41.2L19.306,211.461,0,211.469l10.315,17.866Z" fill="#000b2a"/>
              <path id="Path_882" data-name="Path 882" d="M52.818,229.335l-11.547-20,20.665-35.794H41.2L19.306,211.461,0,211.469l10.315,17.866Z" fill="#000b2a"/>
              <path id="Path_883" data-name="Path 883" d="M66.032,214.25l-11.547,20H13.153l10.369,17.959H67.309l9.659,16.716,10.315-17.867Z" fill="#000b2a"/>
              <path id="Path_884" data-name="Path 884" d="M46.468,210.349H69.563l20.665,35.794L100.6,228.185,78.7,190.264l9.646-16.723H67.719Z" fill="#000b2a"/>
              <path id="Path_885" data-name="Path 885" d="M113.645,297.719l-11.547-20,20.665-35.794H102.027L80.133,279.845l-19.306.008,10.315,17.866Z" fill="#000b2a"/>
              <path id="Path_886" data-name="Path 886" d="M113.645,297.719l-11.547-20,20.665-35.794H102.027L80.133,279.845l-19.306.008,10.315,17.866Z" fill="#000b2a"/>
              <path id="Path_887" data-name="Path 887" d="M126.859,282.634l-11.547,20H73.98l10.369,17.959h43.787l9.659,16.716,10.315-17.867Z" fill="#000b2a"/>
              <path id="Path_888" data-name="Path 888" d="M107.295,278.733h23.1l20.665,35.794,10.369-17.958L139.53,258.648l9.646-16.723h-20.63Z" fill="#000b2a"/>
            </g>
          </g>
        </g>
      </g>
    </g>
    <g id="Group_630" data-name="Group 630">
      <g id="Group_629" data-name="Group 629" clip-path="url(#clip-path)">
        <path id="Path_889" data-name="Path 889" d="M188.123,199.659h0a20.254,20.254,0,0,1-12.046-25.986L205.2,94.229a20.253,20.253,0,1,1,38.032,13.94l-29.119,79.444a20.254,20.254,0,0,1-25.986,12.046" fill="#0060af"/>
        <g id="Group_625" data-name="Group 625" opacity="0.3">
          <g id="Group_624" data-name="Group 624">
            <g id="Group_623" data-name="Group 623" clip-path="url(#clip-path-9)">
              <path id="Path_890" data-name="Path 890" d="M216.121,82.651A20.176,20.176,0,0,0,205.2,94.229l-4.6,12.564a22.457,22.457,0,0,0,1.19,5.006l20.058,54.724,21.389-58.354a20.134,20.134,0,0,0,.329-12.89,22.447,22.447,0,0,0-27.436-12.628" fill="#0b2148"/>
            </g>
          </g>
        </g>
        <path id="Path_891" data-name="Path 891" d="M274.214,237.6h0a20.254,20.254,0,0,0,12.046-25.986L243.234,94.229a20.253,20.253,0,0,0-38.032,13.94l43.026,117.386A20.254,20.254,0,0,0,274.214,237.6" fill="#ef5713"/>
        <path id="Path_892" data-name="Path 892" d="M129.876,199.659h0a20.254,20.254,0,0,1-12.046-25.986l29.119-79.444a20.253,20.253,0,0,1,38.032,13.94l-29.119,79.444a20.254,20.254,0,0,1-25.986,12.046" fill="#0060af"/>
        <g id="Group_628" data-name="Group 628" opacity="0.3">
          <g id="Group_627" data-name="Group 627">
            <g id="Group_626" data-name="Group 626" clip-path="url(#clip-path-10)">
              <path id="Path_893" data-name="Path 893" d="M157.875,82.651A20.176,20.176,0,0,0,146.95,94.229l-4.6,12.564a22.457,22.457,0,0,0,1.19,5.006l20.058,54.724,21.389-58.354a20.134,20.134,0,0,0,.329-12.89,22.447,22.447,0,0,0-27.436-12.628" fill="#0b2148"/>
            </g>
          </g>
        </g>
        <path id="Path_894" data-name="Path 894" d="M215.967,237.6h0a20.254,20.254,0,0,0,12.047-25.986L184.988,94.229a20.253,20.253,0,1,0-38.032,13.94l43.026,117.386A20.253,20.253,0,0,0,215.967,237.6" fill="#ef5713"/>
      </g>
    </g>
  </g>
</svg>
