<?xml version="1.0" encoding="UTF-8" standalone="no"?>
<!-- Created with Inkscape (http://www.inkscape.org/) -->

<svg
   width="210mm"
   height="297mm"
   viewBox="0 0 210 297"
   version="1.1"
   id="svg1"
   xml:space="preserve"
   inkscape:version="1.3.2 (091e20e, 2023-11-25, custom)"
   sodipodi:docname="drawing.svg"
   xmlns:inkscape="http://www.inkscape.org/namespaces/inkscape"
   xmlns:sodipodi="http://sodipodi.sourceforge.net/DTD/sodipodi-0.dtd"
   xmlns="http://www.w3.org/2000/svg"
   xmlns:svg="http://www.w3.org/2000/svg"><sodipodi:namedview
     id="namedview1"
     pagecolor="#ffffff"
     bordercolor="#000000"
     borderopacity="0.25"
     inkscape:showpageshadow="2"
     inkscape:pageopacity="0.0"
     inkscape:pagecheckerboard="0"
     inkscape:deskcolor="#d1d1d1"
     inkscape:document-units="mm"
     inkscape:zoom="1.037182"
     inkscape:cx="497.50188"
     inkscape:cy="510.03584"
     inkscape:window-width="1920"
     inkscape:window-height="986"
     inkscape:window-x="2869"
     inkscape:window-y="-11"
     inkscape:window-maximized="1"
     inkscape:current-layer="layer1" /><defs
     id="defs1" /><g
     inkscape:label="Layer 1"
     inkscape:groupmode="layer"
     id="layer1"
     transform="translate(8.9284391,-7.3978497)"><path
       d="m 99.41531,134.82492 c -0.889,-1.33614 -1.41817,-3.36814 -1.53988,-5.38956 -0.12171,-2.01083 0.1614,-4.07987 0.89165,-5.50598 l 0.74083,-1.44727 1.26736,1.016 12.04648,9.66259 c 0.49212,-1.80975 0.64293,-3.62215 0.49741,-5.33665 -0.19844,-2.31775 -1.2065,-4.82865 -2.41035,-6.47171 l 2.28071,-1.33085 c 1.49225,2.03729 2.5347,4.78102 2.77548,7.58296 0.22754,2.63789 -0.15875,5.48481 -1.26207,8.26558 l -0.66146,1.66687 -1.39964,-1.12183 -12.01208,-9.63612 c -0.12436,0.76729 -0.15875,1.62983 -0.10584,2.50031 0.0953,1.59279 0.47625,3.1406 1.10331,4.08252 z m 22.92614,9.144 c 2.97127,-4.64608 4.71488,-10.56216 4.71223,-15.16062 -0.003,-5.77585 -1.81239,-10.99608 -4.11691,-14.40921 l 2.31245,-1.32027 c 2.51884,3.77296 4.4503,9.47208 4.4503,15.72948 0.003,5.05883 -1.97644,11.66812 -5.24934,16.78252 z m -5.50068,-4.29418 c 2.11931,-3.04271 3.38402,-7.1755 3.36285,-11.01461 -0.0212,-3.82323 -1.11919,-7.67556 -3.28877,-10.77383 l 2.29658,-1.33085 c 2.42359,3.50572 3.61421,7.81843 3.63802,12.0941 0.0238,4.37356 -1.47902,9.15987 -3.91054,12.65502 z"
       id="path1"
       style="fill:#000000;fill-opacity:1;stroke-width:0.264583" /></g></svg>
